<?xml version="1.0" encoding="UTF-8"?>
<svg id="Layer_1" xmlns="http://www.w3.org/2000/svg" version="1.1" viewBox="0 0 1000 1000">
  <!-- Generator: Adobe Illustrator 29.0.0, SVG Export Plug-In . SVG Version: 2.1.0 Build 186)  -->
  <defs>
    <style>
      .st0 {
        fill: #c8102e;
        fill-rule: evenodd;
      }

      .st1 {
        fill: #a5a5a5;
      }

      .st2 {
        fill: #fff;
      }
    </style>
  </defs>
  <g>
    <path class="st1" d="M799,392.5H170.5c-3.6,0-7.2.3-10.9.8-3.3.8-7,1.9-10,3.6-3.3,1.7-6.1,3.6-8.6,6.4-2.8,2.5-4.7,5.3-6.4,8.6-1.7,3.3-2.8,6.7-3.3,10.3-.6,3.3-1.1,7-1.1,10.6v134.2c0,3.6.3,7.2.8,10.9.6,3.6,1.7,7,3.3,10.3s3.9,6.1,6.4,8.6,5.6,4.7,8.6,6.4c3.3,1.7,6.7,2.8,10.3,3.3,3.6.6,7.2.8,10.9.8h639.3c3.6,0,7.2-.3,10.9-.8,3.6-.6,7-1.7,10.3-3.3,3.3-1.7,6.1-3.9,8.6-6.4s4.7-5.6,6.4-8.6c1.7-3.3,2.8-6.7,3.3-10.3.6-3.6.8-7.2,1.1-10.9v-134c0-3.6-.3-7.2-1.1-10.9-.6-3.6-1.7-7-3.3-10.3-3.3-6.4-8.6-11.7-15-15-3.3-1.7-6.7-2.8-10.3-3.3-3.6-.6-7.2-.8-10.9-.8h-5c-1.9-.2-3.9-.2-5.8-.2h0Z"/>
    <path d="M175.4,602.8h-4.7c-3.3,0-6.7-.3-10-.8-3.1-.6-6.1-1.4-8.9-3.1-2.8-1.4-5.3-3.3-7.5-5.6s-4.2-4.7-5.6-7.5c-1.4-2.8-2.5-5.8-2.8-8.9-.6-3.3-.8-6.7-.8-10v-133.7c0-3.3.3-6.7.8-10,.6-3.1,1.4-6.1,2.8-8.9,1.4-2.8,3.3-5.3,5.6-7.5s4.7-4.2,7.5-5.6,5.8-2.5,8.9-3.1c3.3-.6,6.7-.8,10-.8h639.1c3.3,0,6.7.3,10,.8,3.1.6,6.1,1.4,8.9,3.1,5.6,2.8,10,7.5,13.1,13.1,1.4,2.8,2.5,5.8,2.8,8.9.6,3.3.8,6.7.8,10v133.8c0,3.3-.3,6.7-.8,10-.6,3.1-1.4,6.1-2.8,8.9-1.4,2.8-3.3,5.3-5.6,7.5-2.2,2.2-4.7,4.2-7.5,5.6-2.8,1.4-5.8,2.5-8.9,3.1-3.3.6-6.7.8-10,.8H175.4Z"/>
  </g>
  <g>
    <path class="st2" d="M413.7,534.3h-23.3l-5.7,15.6h-10.2l22.8-58.1h9.7l23.3,58.1h-10.7l-5.8-15.6ZM393.3,526.3h17.4l-6.2-16.6c-.8-2.3-1.7-4.8-2.5-7.6-.8,2.5-1.6,5-2.5,7.5l-6.2,16.7Z"/>
    <path class="st2" d="M434.3,517.1c0-3.2-.1-6.7-.3-10.6h9.3c.3,1.8.6,3.7.7,5.5,1.6-1.9,3.6-3.5,5.9-4.6,2.3-1.1,4.8-1.7,7.3-1.7,3,0,5.9.8,8.4,2.4,2.5,1.6,4.4,3.9,5.6,6.7,1.6,3.8,2.4,7.8,2.3,11.9.1,4.5-.8,8.9-2.7,13-1.5,3.4-4.1,6.2-7.2,8.1-3.3,1.9-7,2.8-10.7,2.8-3,0-5.9-.5-8.7-1.5v17.9l-9.9.8v-50.8ZM460.4,539.2c2-2.7,3-6.6,3-11.9s-.8-8.4-2.5-10.6c-.8-1-1.8-1.9-2.9-2.4-1.2-.6-2.4-.8-3.7-.8-1.9,0-3.7.4-5.3,1.3-1.7,1-3.3,2.2-4.7,3.6v23.2c1.1.5,2.3.9,3.4,1.1,1.3.3,2.6.4,3.9.4,1.7.1,3.3-.2,4.8-.9,1.5-.7,2.8-1.7,3.9-3Z"/>
    <path class="st2" d="M479.5,517.1c0-3.2-.1-6.7-.3-10.6h9.3c.4,1.8.6,3.7.7,5.5,3.9-4.2,8.3-6.3,13.3-6.3,3,0,5.9.8,8.4,2.4,2.5,1.6,4.4,3.9,5.6,6.7,1.6,3.8,2.4,7.8,2.3,11.9.1,4.5-.8,8.9-2.6,13-1.5,3.4-4.1,6.2-7.2,8.1-3.3,1.9-7,2.8-10.7,2.8-3,0-5.9-.5-8.7-1.5v17.9l-9.9.8v-50.8ZM505.6,539.2c2-2.7,3-6.7,3-11.9s-.8-8.4-2.5-10.6c-.8-1-1.8-1.9-2.9-2.4-1.2-.6-2.4-.8-3.7-.8-1.9,0-3.7.4-5.3,1.3-1.7,1-3.3,2.2-4.7,3.6v23.2c1.1.5,2.3.9,3.4,1.1,1.3.3,2.6.4,3.9.4,1.7,0,3.3-.2,4.8-.9,1.5-.7,2.8-1.7,3.9-3Z"/>
    <path class="st2" d="M537,547.1c-4.2-2.3-7.7-5.9-9.9-10.2-2.4-4.9-3.6-10.2-3.4-15.7-.2-5.8,1.2-11.5,4-16.6,2.5-4.4,6.3-8,10.8-10.3,4.8-2.3,10-3.5,15.3-3.4,3.2,0,6.4.4,9.6,1.1,2.9.7,5.8,1.7,8.5,3l-2.6,7.6c-4.7-2.4-9.8-3.7-15.1-3.8-3.7,0-7.4.9-10.6,2.7-3.1,1.8-5.5,4.4-7.1,7.6-1.8,3.8-2.6,7.9-2.5,12.1,0,3.8.6,7.5,1.9,11,1.2,3.1,3.4,5.8,6.1,7.6,3.2,2,6.9,3,10.6,2.8,1.9,0,3.9-.2,5.8-.5,1.8-.3,3.7-.8,5.4-1.4v-11.8h-13.4v-7.7h23.1v24.5c-3.3,1.6-6.9,2.8-10.5,3.6-3.6.8-7.2,1.2-10.9,1.2-5.3.1-10.5-1.1-15.2-3.6Z"/>
    <path class="st2" d="M608.7,549.8c-.4-1.9-.6-3.8-.7-5.7-1.7,1.9-3.7,3.5-6,4.6-2.6,1.3-5.4,2-8.3,1.9-2.4,0-4.7-.5-6.8-1.5-2-1-3.7-2.5-4.9-4.4-1.3-2.2-1.9-4.7-1.8-7.2,0-1.9.3-3.8,1.1-5.6.8-1.7,2-3.3,3.5-4.5,3-2.5,8.1-3.8,15.1-3.8,2.6,0,5.3.2,7.9.6v-.8c0-3.8-.8-6.5-2.4-8.1-1.9-1.7-4.5-2.5-7-2.3-2.3,0-4.6.3-6.8.9-2.2.5-4.3,1.3-6.4,2.2l-1.6-7.2c2.2-1,4.6-1.7,7-2.2,3-.7,6.1-1,9.2-1,3.3,0,6.5.5,9.5,1.7,2.7,1.2,4.8,3.2,6.1,5.9,1.6,3.5,2.4,7.3,2.2,11.2v17.2c0,1.8.1,4.5.3,8.1h-9.3ZM602.7,541.9c1.9-.9,3.6-2.1,5-3.7v-8c-2.2-.3-4.4-.4-6.6-.4-4.1,0-6.9.7-8.5,2-.8.6-1.4,1.5-1.8,2.4-.4.9-.6,1.9-.6,2.9,0,.9,0,1.7.3,2.6.3.8.8,1.6,1.4,2.2,1.3,1.1,3,1.6,4.6,1.6,2.1,0,4.2-.5,6.1-1.5Z"/>
    <path class="st2" d="M625.3,539.4v-51.2l9.9-.8v50.2c-.1,1.4.2,2.8.9,4,.4.4.8.7,1.4.9.5.2,1.1.3,1.6.2.9,0,1.8-.2,2.7-.5l1.2,7.1c-1.1.4-2.3.7-3.4.9-1.3.2-2.5.3-3.8.3-6.9,0-10.3-3.8-10.3-11.3Z"/>
    <path class="st2" d="M649.9,539.4v-51.2l9.9-.8v50.2c-.1,1.4.2,2.8.9,4,.4.4.8.7,1.4.9.5.2,1.1.3,1.6.2.9,0,1.8-.2,2.7-.5l1.2,7.1c-1.1.4-2.3.7-3.4.9-1.3.2-2.6.3-3.8.3-6.9,0-10.3-3.8-10.3-11.3Z"/>
    <path class="st2" d="M708.1,529.4h-28.3c.5,9.1,4.8,13.6,13,13.6,2.1,0,4.2-.3,6.2-.7,2.1-.5,4.1-1.2,6.1-2l2.2,6.8c-5.1,2.4-10.7,3.6-16.3,3.5-4,.1-8-.8-11.6-2.7-3.1-1.7-5.6-4.3-7.1-7.5-1.7-3.7-2.5-7.7-2.4-11.8-.1-4.3.8-8.5,2.5-12.4,1.5-3.3,4-6,7-8,3.2-1.9,6.8-2.8,10.4-2.7,3.6-.1,7.2.9,10.2,2.9,2.7,1.9,4.9,4.6,6.1,7.6,1.4,3.4,2,7,2,10.6v2.7ZM698.4,523.2c0-2.8-.9-5.6-2.7-7.8-.8-.9-1.7-1.6-2.8-2-1.1-.5-2.2-.7-3.4-.6-1.2,0-2.3.2-3.4.7-1.1.5-2.1,1.1-2.9,2-1.9,2.2-3,4.9-3.3,7.7h18.4Z"/>
    <path class="st2" d="M715.6,517.4c0-2.4-.1-6-.3-10.9h9.3c.2,1.2.3,2.7.5,4.3.2,1.7.2,3,.3,4.1,1-1.7,2.1-3.3,3.4-4.8,1.1-1.3,2.4-2.4,3.9-3.2,1.6-.8,3.3-1.3,5.1-1.2,1.3,0,2.7.1,4,.5l-1.2,8.6c-1.6-.4-3.2-.6-4.8-.3-1.6.2-3.1.8-4.5,1.7-2.2,1.6-4.1,3.6-5.7,5.9v27.8h-9.9v-32.4Z"/>
    <path class="st2" d="M747.1,567.5c-1.2-.2-2.4-.5-3.6-.9l1.8-7.2c.8.2,1.7.4,2.5.5,1,.2,1.9.3,2.9.3,4.4,0,7.7-2.8,9.9-8.5l.6-1.6-16-43.7h10.6l8.1,24.4c1,3.1,1.9,6.3,2.5,9.6.8-3.1,1.6-6.3,2.7-9.4l8.1-24.6h10l-15.9,43.9c-1.2,3.5-2.8,6.9-4.9,10-1.5,2.4-3.7,4.3-6.1,5.6-2.7,1.3-5.6,1.9-8.6,1.9-1.6,0-3.1-.1-4.7-.4Z"/>
    <path class="st2" d="M374.4,436.4h17.6l-.5,4.3h-12v8.3h11.3v4h-11.3v9.1h12.6l-.4,4.3h-17.3v-30Z"/>
    <path class="st2" d="M404.2,451l-9.3-14.7h5.9l6.3,10.8,6.6-10.8h5.7l-9.3,14.5,10,15.5h-6l-7.1-11.8-7.3,11.8h-5.7l10.1-15.3Z"/>
    <path class="st2" d="M424.1,436.4h8.1c3.8,0,6.7.8,8.7,2.3,1,.8,1.8,1.8,2.3,3,.5,1.2.8,2.4.7,3.7,0,1.8-.4,3.6-1.3,5.2-.9,1.5-2.2,2.7-3.8,3.4-1.7.8-3.6,1.2-5.6,1.2-1.3,0-2.7-.2-4-.4v11.5h-5.2v-30ZM437,449.7c.6-.5,1-1.2,1.3-1.9.3-.7.4-1.5.4-2.3,0-.7,0-1.5-.3-2.2-.3-.7-.8-1.3-1.3-1.8-1.5-.9-3.2-1.3-5-1.2h-2.8v10.6c1,.2,2,.3,3,.3,1.7.1,3.5-.4,4.8-1.5Z"/>
    <path class="st2" d="M449,436.4h5.2v25.6h12.4l-.4,4.4h-17.1v-30Z"/>
    <path class="st2" d="M474.4,464.9c-2.2-1.2-3.9-3.1-5-5.3-1.2-2.5-1.8-5.2-1.7-8,0-2.9.6-5.7,1.9-8.3,1.2-2.3,3-4.2,5.3-5.5,2.6-1.3,5.4-2,8.3-1.9,2.7,0,5.4.6,7.8,1.9,2.2,1.2,3.9,3.1,5,5.3,1.2,2.4,1.8,5.1,1.7,7.9,0,2.9-.6,5.8-1.9,8.4-1.2,2.3-3,4.2-5.3,5.5-2.5,1.3-5.3,2-8.2,1.9-2.7,0-5.5-.6-7.9-1.9ZM487.9,461.2c1.5-1,2.6-2.4,3.3-4,.7-1.9,1.1-3.8,1.1-5.8,0-2-.3-3.9-1-5.8-.6-1.6-1.7-3-3-4-1.6-1-3.5-1.5-5.4-1.5s-3.7.5-5.4,1.5c-1.5,1-2.6,2.4-3.3,4.1-.8,1.8-1.1,3.7-1.1,5.6,0,2,.3,4,1,5.8.6,1.7,1.8,3.2,3.3,4.2,1.5,1,3.3,1.5,5.1,1.4,1.9,0,3.7-.5,5.3-1.5Z"/>
    <path class="st2" d="M503.4,436.4h9.4c2.7-.2,5.5.5,7.8,2.1.9.7,1.6,1.6,2,2.6.5,1,.7,2.1.6,3.3,0,1.5-.3,2.9-1,4.2-.6,1.1-1.4,2.1-2.4,3-.9.7-1.9,1.3-2.9,1.7l9.3,13.3h-6l-7.8-11.9h-3.8v11.9h-5.2v-30ZM511.5,450.5c1.2,0,2.3-.2,3.3-.7.9-.4,1.7-1.2,2.3-2,.5-.9.8-2,.8-3.1,0-.6,0-1.3-.3-1.8s-.6-1.1-1.1-1.5c-1.2-.8-2.7-1.1-4.2-1h-3.7v10.2h2.9Z"/>
    <path class="st2" d="M530.3,436.4h17.7l-.5,4.3h-11.9v8.3h11.2v4h-11.3v9.1h12.6l-.4,4.3h-17.4v-30Z"/>
    <path class="st2" d="M567.2,436.4h5.2v30h-5.2v-30Z"/>
    <path class="st2" d="M586,440.7h-9.3l.5-4.3h23.3l-.5,4.3h-8.8v25.7h-5.2v-25.7Z"/>
    <path class="st2" d="M623,464.9c-2.2-1.2-3.9-3.1-5-5.3-1.2-2.5-1.8-5.2-1.7-8,0-2.9.6-5.7,1.9-8.3,1.2-2.3,3-4.2,5.3-5.5,2.5-1.3,5.4-2,8.2-1.9,2.8,0,5.5.6,7.9,1.9,2.2,1.2,3.9,3.1,5,5.3,1.2,2.4,1.8,5.1,1.7,7.9,0,2.9-.6,5.8-1.9,8.4-1.2,2.3-3,4.2-5.3,5.5-2.5,1.3-5.3,2-8.1,1.9-2.8,0-5.5-.6-7.9-1.9ZM636.4,461.2c1.5-1,2.6-2.4,3.2-4,.7-1.9,1.1-3.8,1.1-5.8,0-2-.3-3.9-1-5.8-.6-1.6-1.6-3-3-4-1.6-1-3.5-1.5-5.4-1.5s-3.8.5-5.4,1.5c-1.5,1-2.6,2.4-3.3,4.1-.7,1.8-1.1,3.7-1.1,5.6,0,2,.3,4,1,5.8.6,1.6,1.7,3,3.2,4.1,1.6,1,3.4,1.6,5.3,1.5,1.9,0,3.7-.5,5.3-1.5Z"/>
    <path class="st2" d="M651.9,436.4h5.9l14.8,23.2c-.1-2.2-.2-4.2-.2-6.1v-17.1h4.8v30h-5.8l-15.1-23.6c.1,2.7.2,5,.2,7.1v16.5h-4.8v-30Z"/>
    <path class="st0" d="M301.6,436.5h-55c-25.9,0-35.4,9.5-35.4,35.4v55.1c0,25.9,9.5,35.4,35.4,35.4h55c25.9,0,35.4-9.5,35.4-35.4v-55.1c0-25.9-9.5-35.4-35.4-35.4Z"/>
    <path class="st2" d="M236,499.5h3.3v16.5h-3.3v-6.7h-7.5v6.7h-3.3v-16.5h3.3v6.6h7.5v-6.6ZM254.9,508.9c0,2.7-1.3,4.1-3.7,4.1s-3.8-1.5-3.8-4.3v-9.3h-3.3v9.4c0,4.6,2.6,7.3,7.1,7.3s7.1-2.7,7.1-7.4v-9.3h-3.3v9.4ZM293.5,510.8l-3.7-11.3h-2.7l-3.7,11.3-3.6-11.3h-3.6l5.7,16.5h2.8l3.7-10.8,3.7,10.8h2.8l5.7-16.5h-3.5l-3.6,11.3ZM306.6,508.8h6.1v-3h-6.1v-3.4h8.8v-3h-12.1v16.4h12.4v-3h-9.1v-4.1ZM319.7,515.9h3.3v-16.4h-3.3v16.4ZM264.8,512.5l-1.5,3.4h-3.4l7.2-16.4h2.9l7.2,16.4h-3.4l-1.4-3.4h-7.6ZM266.1,509.5h5l-2.5-5.9-2.5,5.9Z"/>
    <path class="st2" d="M274.1,478.5c-5.6,0-10.9-2.2-14.8-6.1-3.9-3.9-6.1-9.3-6.1-14.8h3c0,4.8,1.9,9.4,5.3,12.7,3.4,3.4,8,5.3,12.7,5.3s9.4-1.9,12.7-5.3c3.4-3.4,5.3-8,5.3-12.7h3c0,5.6-2.2,10.9-6.1,14.8-3.9,3.9-9.3,6.1-14.8,6.1Z"/>
  </g>
</svg>